<?xml version="1.0" encoding="utf-8"?>
<svg version="1.1" id="Layer_1" xmlns="http://www.w3.org/2000/svg" xmlns:xlink="http://www.w3.org/1999/xlink" x="0px" y="0px"
	 viewBox="0 0 370 620" xml:space="preserve">
<style type="text/css">
	.st1{fill:none;stroke:#1a5276;stroke-width:5;}
	.st2{fill:none;stroke:#1a5276;stroke-width:5;}
	.st3{fill:none;stroke:#1a5276;stroke-width:2;}
	.st4{fill:none;stroke:#1a5276;stroke-width:3;}
	.st5{fill:none;stroke:#1a5276;stroke-width:3;}
</style>
<g transform="translate(0, -100)">
<!-- Stethoscope -->
<path id="Path_1667" class="st1" d="M83,89.2l1.3,3.5c5.4,14.8,21.7,22.4,36.5,17.1c14.8-5.4,22.4-21.7,17.1-36.5c0,0,0,0,0,0
	l-3.6-9.9c-10.5,0.1-19.1-8.3-19.2-18.8s8.3-19.1,18.8-19.2S153,33.5,153.1,44c0.1,5.7-2.5,11.2-6.9,14.9l3.6,9.9
	c7.8,21.4-3.2,45-24.6,52.8c-21.4,7.8-45-3.2-52.8-24.6c0,0,0,0,0,0l-1.3-3.5c-18.2,3.3-36.2-7-42.6-24.4L17.7,39.4
	c-2.4-6.6,1-13.8,7.6-16.2c0,0,0,0,0,0l6-2.2c3.3-1.2,6.9,0.5,8.1,3.8c1.2,3.3-0.5,6.9-3.8,8.1l-6,2.2l10.8,29.8
	C45.1,78,59.6,84.9,72.8,80.2C86,75.5,92.9,61,88.2,47.8c0-0.1-0.1-0.2-0.1-0.3L77.2,17.7l-6,2.2c-3.3,1.2-6.9-0.5-8.1-3.8
	s0.5-6.9,3.8-8.1l0,0l6-2.2c6.6-2.4,13.8,1,16.2,7.6c0,0,0,0,0,0L100,43.1C106.3,60.6,99.1,80,83,89.2 M136.2,50.2
	c3.3-1.2,5-4.8,3.8-8.1c-1.2-3.3-4.8-5-8.1-3.8c-3.3,1.2-5,4.8-3.8,8.1c0,0,0,0,0,0C129.3,49.7,132.9,51.4,136.2,50.2"/>
<!-- Plane top-right -->
<g id="Group_plane_top">
	<path class="st5" d="M276.5,68.8L290,74l14.8-14.6
		l-21.3,0.8c-0.2,0-0.4,0.1-0.6,0.3l-6.7,5.3c-0.6,0.6-0.8,1.4-0.5,2.2C275.9,68.3,276.1,68.6,276.5,68.8"/>
	<path class="st5" d="M342.8,52.4l-14.8-4.3
		c-2.6-0.7-5.4,0.1-7.2,2.1l-44.7,44l-10.7-0.6c-1.6-0.1-3,1.6-3,3.8c-0.1,1.2,0.3,2.3,1.1,3.2l10.4,11.2c0.3,0.4,0.8,0.5,1.2,0.3
		c3-1.6,14.1-9.6,27.2-19.3l2.6,36.7c0.1,1,0.7,1.7,1.4,1.6c0.3,0,0.5-0.2,0.7-0.4l5.9-6.6c0.3-0.4,0.6-0.9,0.6-1.4l5.6-42.3
		c9.4-7.1,18.4-13.9,24.7-18.8c1.8-1.3,2.4-4.3,1.5-6.7C344.9,53.7,344,52.8,342.8,52.4"/>
</g>
<!-- Car -->
<path id="Path_1674" class="st2" d="M232.9,508.3c0.3-4.9-2.6-9.3-7.1-11.2l-77.5-31.3c-4.5-1.8-9.7-0.6-12.9,3.1l-30,34.3
	c-1.1,1.3-2,2.8-2.7,4.3L82.4,558c-2.4,5.8,0.5,12.5,6.3,14.8c5.8,2.4,12.5-0.5,14.8-6.3c0,0,0,0,0,0l1.4-3.5l84.5,34.1l-1.4,3.5
	c-2.4,5.8,0.5,12.5,6.3,14.8c5.8,2.4,12.5-0.5,14.8-6.3l20.4-50.4c0.6-1.6,1-3.3,1.1-5L232.9,508.3z M117,543.3
	c-5.8-2.4-8.7-9-6.3-14.8c2.4-5.8,9-8.7,14.8-6.3c5.8,2.4,8.7,9,6.3,14.8C129.5,542.9,122.9,545.7,117,543.3
	C117,543.3,117,543.3,117,543.3z M194.5,574.6c-5.8-2.4-8.7-9-6.3-14.8c2.4-5.8,9-8.7,14.8-6.3s8.7,9,6.3,14.8l0,0
	C207,574.2,200.3,577,194.5,574.6C194.5,574.6,194.5,574.6,194.5,574.6L194.5,574.6z M120.7,503.9l19.8-23.3
	c2.1-2.4,5.6-3.3,8.6-2.1l67.3,27.2c3,1.2,4.9,4.2,4.8,7.5l-1.9,30.5L120.7,503.9z"/>
<!-- Small stethoscope -->
<path id="Path_1675" class="st3" d="M303.4,620.3l0.7,2c3.2,8.7,12.7,13.1,21.4,10s13.1-12.7,10-21.4l-2.1-5.8
	c-6.1,0.1-11.2-4.9-11.2-11s4.9-11.2,11-11.2s11.2,4.9,11.2,11c0,3.4-1.5,6.6-4.1,8.7l2.1,5.8c4.6,12.5-1.9,26.3-14.4,30.9
	s-26.3-1.9-30.9-14.4l-0.7-2c-10.7,2-21.2-4.1-24.9-14.3l-6.3-17.4c-1.4-3.8,0.6-8.1,4.4-9.5l3.5-1.3c1.9-0.7,4,0.4,4.7,2.3
	c0.7,1.9-0.3,4-2.2,4.7l-3.5,1.3l6.3,17.4c2.8,7.7,11.3,11.7,19,8.9c7.7-2.8,11.7-11.3,8.9-19l-6.3-17.4l-3.5,1.3
	c-1.9,0.7-4-0.4-4.7-2.3c-0.7-1.9,0.3-4,2.2-4.7l3.5-1.3c3.8-1.4,8.1,0.6,9.5,4.4c0,0,0,0,0,0l6.3,17.4
	C317,603.6,312.8,614.9,303.4,620.3 M334.5,597.5c1.9-0.7,2.9-2.8,2.2-4.8c-0.7-1.9-2.8-2.9-4.8-2.2s-2.9,2.8-2.2,4.8c0,0,0,0,0,0
	C330.5,597.2,332.6,598.2,334.5,597.5C334.5,597.5,334.5,597.5,334.5,597.5"/>
<!-- Plane bottom -->
<g id="Group_plane_bottom">
	<path class="st4" d="M77.4,666.3l13.5,5.3l14.8-14.6
		l-21.3,0.8c-0.2,0-0.4,0.1-0.6,0.3l-6.7,5.3c-0.6,0.6-0.8,1.4-0.5,2.2C76.8,665.8,77.1,666.1,77.4,666.3"/>
	<path class="st4" d="M143.8,649.9l-14.8-4.3
		c-2.6-0.7-5.4,0.1-7.2,2.1l-44.7,44l-10.7-0.6c-1.6-0.1-3,1.6-3,3.8c-0.1,1.2,0.3,2.3,1.1,3.2l10.4,11.2c0.3,0.4,0.8,0.5,1.2,0.3
		c3-1.6,14.1-9.6,27.2-19.3l2.6,36.7c0.1,1,0.7,1.7,1.4,1.6c0.3,0,0.5-0.2,0.7-0.4l5.9-6.6c0.3-0.4,0.6-0.9,0.6-1.4l5.6-42.3
		c9.4-7.1,18.4-13.9,24.7-18.8c1.8-1.3,2.4-4.3,1.5-6.7C145.8,651.2,144.9,650.3,143.8,649.9"/>
</g>
</g>
</svg>
